<svg xmlns="http://www.w3.org/2000/svg" viewBox="0 0 256 256" role="img" aria-label="wind metric icon">
  <defs>
    <filter id="shadow" x="-35%" y="-35%" width="170%" height="180%"><feDropShadow dx="5" dy="9" stdDeviation="7" flood-color="#0A2D52" flood-opacity=".36"/></filter>
    <linearGradient id="blue" x1="0" x2="0" y1="0" y2="1"><stop offset="0" stop-color="#B9ECFF"/><stop offset=".52" stop-color="#58BDF7"/><stop offset="1" stop-color="#168DE1"/></linearGradient>
  </defs>
  <g filter="url(#shadow)" fill="none" stroke="#78CAFF" stroke-width="16" stroke-linecap="round" stroke-linejoin="round">
    <path d="M34 82c46 2 96 1 132-4 25-4 35-26 20-42-14-15-42-5-38 20"/>
    <path d="M22 128c54 4 118 0 172-13 28-7 52 10 50 35-2 23-33 34-49 13-8-11-4-24 8-28"/>
    <path d="M58 174c38 2 79 0 107-7 23-6 42 8 39 29-3 20-30 28-43 11-7-9-4-20 7-25"/>
  </g>
</svg>
